<svg width="391.8" height="58.32" viewBox="0 0 391.8 58.32" xmlns="http://www.w3.org/2000/svg"><g id="svgGroup" stroke-linecap="round" fill-rule="evenodd" font-size="9pt" stroke="currentColor" stroke-width="2.25" fill="currentColor" class=""><path d="M 259.8 4.56 L 259.8 5.76 A 18.644 18.644 0 0 0 258.733 5.82 Q 257.707 5.909 257.03 6.112 A 4.125 4.125 0 0 0 256.74 6.21 Q 255.72 6.6 255.39 7.65 A 5.283 5.283 0 0 0 255.23 8.333 Q 255.102 9.082 255.07 10.177 A 25.908 25.908 0 0 0 255.06 10.92 L 255.06 40.68 A 22.711 22.711 0 0 0 255.086 41.81 Q 255.137 42.831 255.288 43.525 A 4.959 4.959 0 0 0 255.39 43.92 A 2.343 2.343 0 0 0 255.771 44.677 A 2.058 2.058 0 0 0 256.74 45.36 A 5.856 5.856 0 0 0 257.436 45.553 Q 258.366 45.756 259.8 45.84 L 259.8 47.04 Q 258.77 46.958 257.401 46.918 A 84.513 84.513 0 0 0 256.08 46.89 Q 253.86 46.86 251.58 46.86 Q 249.06 46.86 246.84 46.89 Q 244.945 46.916 243.706 47.007 A 23.698 23.698 0 0 0 243.3 47.04 L 243.3 45.84 A 22.772 22.772 0 0 0 244.369 45.754 Q 245.635 45.619 246.39 45.36 A 2.132 2.132 0 0 0 247.699 44.179 A 2.73 2.73 0 0 0 247.8 43.92 A 5.354 5.354 0 0 0 247.982 43.184 Q 248.16 42.199 248.16 40.68 L 248.16 7.86 L 248.46 7.98 L 233.7 47.28 L 232.74 47.28 L 217.26 8.4 L 217.26 39.12 A 28.556 28.556 0 0 0 217.294 40.57 Q 217.363 41.916 217.569 42.838 A 7.312 7.312 0 0 0 217.62 43.05 A 3.381 3.381 0 0 0 218.051 44.062 A 2.819 2.819 0 0 0 219.18 45.06 A 5.305 5.305 0 0 0 220.053 45.394 Q 221.149 45.716 222.84 45.84 L 222.84 47.04 A 22.022 22.022 0 0 0 221.982 46.968 Q 221.092 46.91 219.93 46.89 Q 218.16 46.86 216.6 46.86 Q 215.1 46.86 213.6 46.89 Q 212.592 46.91 211.828 46.971 A 15.458 15.458 0 0 0 211.14 47.04 L 211.14 45.84 Q 212.973 45.673 213.983 45.172 A 3.592 3.592 0 0 0 214.14 45.09 A 2.663 2.663 0 0 0 215.226 43.932 A 3.967 3.967 0 0 0 215.52 43.14 Q 215.88 41.76 215.88 39.36 L 215.88 10.92 Q 215.88 9.128 215.645 8.098 A 4.401 4.401 0 0 0 215.52 7.65 A 2.384 2.384 0 0 0 215.027 6.799 A 2.292 2.292 0 0 0 214.14 6.21 Q 213.219 5.858 211.514 5.775 A 20.381 20.381 0 0 0 211.14 5.76 L 211.14 4.56 Q 211.999 4.614 213.29 4.667 A 197.161 197.161 0 0 0 213.6 4.68 Q 215.1 4.74 216.6 4.74 Q 218.34 4.74 220.11 4.68 Q 221.88 4.62 223.14 4.56 L 236.4 38.64 L 235.26 39.42 L 248.28 4.74 L 249.9 4.74 L 251.58 4.74 Q 253.86 4.74 256.08 4.68 Q 258.274 4.621 259.764 4.561 A 157.934 157.934 0 0 0 259.8 4.56 Z M 182.34 25.38 L 182.34 41.46 A 10.017 10.017 0 0 0 182.402 42.617 Q 182.587 44.205 183.33 44.88 A 2.835 2.835 0 0 0 184.216 45.411 Q 185.161 45.78 186.66 45.78 L 186.66 47.04 Q 185.64 46.98 183.48 46.89 Q 181.32 46.8 179.22 46.8 Q 177.18 46.8 175.17 46.89 Q 173.631 46.959 172.673 47.01 A 102.026 102.026 0 0 0 172.14 47.04 L 172.14 45.78 Q 174.18 45.78 175.02 44.88 Q 175.86 43.98 175.86 41.46 L 175.86 23.7 Q 175.86 21.96 175.56 20.55 Q 175.26 19.14 174.3 18.27 Q 173.554 17.594 172.227 17.443 A 7.168 7.168 0 0 0 171.42 17.4 Q 169.2 17.4 167.49 18.66 A 8.133 8.133 0 0 0 165.339 21.058 A 10.23 10.23 0 0 0 164.79 22.11 Q 163.8 24.3 163.8 27 L 163.8 41.46 Q 163.8 43.431 164.332 44.411 A 2.137 2.137 0 0 0 164.67 44.88 A 2.566 2.566 0 0 0 165.602 45.479 Q 166.375 45.78 167.52 45.78 L 167.52 47.04 Q 166.56 46.98 164.61 46.89 Q 162.66 46.8 160.56 46.8 Q 158.52 46.8 156.3 46.89 Q 154.08 46.98 153 47.04 L 153 45.78 Q 155.34 45.78 156.33 44.88 Q 157.32 43.98 157.32 41.46 L 157.32 22.62 Q 157.32 20.172 156.58 18.883 A 3.401 3.401 0 0 0 156.42 18.63 A 2.63 2.63 0 0 0 155.272 17.726 Q 154.378 17.34 153 17.34 L 153 16.08 A 40.389 40.389 0 0 0 156.268 16.257 A 36.455 36.455 0 0 0 156.72 16.26 A 34.999 34.999 0 0 0 159.15 16.179 A 28.568 28.568 0 0 0 160.53 16.05 Q 162.3 15.84 163.8 15.42 L 163.8 21.96 A 13.658 13.658 0 0 1 165.072 19.573 Q 166.014 18.184 167.22 17.296 A 7.821 7.821 0 0 1 168.09 16.74 Q 170.82 15.24 173.88 15.24 Q 175.591 15.24 176.86 15.56 A 6.98 6.98 0 0 1 177.81 15.87 A 7.777 7.777 0 0 1 179.447 16.777 A 6.653 6.653 0 0 1 180.36 17.58 A 5.904 5.904 0 0 1 181.496 19.336 A 7.824 7.824 0 0 1 181.89 20.52 A 12.182 12.182 0 0 1 182.127 21.768 Q 182.326 23.176 182.339 25.103 A 40.451 40.451 0 0 1 182.34 25.38 Z M 311.1 25.38 L 311.1 41.46 A 10.017 10.017 0 0 0 311.162 42.617 Q 311.347 44.205 312.09 44.88 A 2.835 2.835 0 0 0 312.976 45.411 Q 313.921 45.78 315.42 45.78 L 315.42 47.04 Q 314.4 46.98 312.24 46.89 Q 310.08 46.8 307.98 46.8 Q 305.94 46.8 303.93 46.89 Q 302.391 46.959 301.433 47.01 A 102.026 102.026 0 0 0 300.9 47.04 L 300.9 45.78 Q 302.94 45.78 303.78 44.88 Q 304.62 43.98 304.62 41.46 L 304.62 23.7 Q 304.62 21.96 304.32 20.55 Q 304.02 19.14 303.06 18.27 Q 302.314 17.594 300.987 17.443 A 7.168 7.168 0 0 0 300.18 17.4 Q 297.96 17.4 296.25 18.66 A 8.133 8.133 0 0 0 294.099 21.058 A 10.23 10.23 0 0 0 293.55 22.11 Q 292.56 24.3 292.56 27 L 292.56 41.46 Q 292.56 43.431 293.092 44.411 A 2.137 2.137 0 0 0 293.43 44.88 A 2.566 2.566 0 0 0 294.362 45.479 Q 295.135 45.78 296.28 45.78 L 296.28 47.04 Q 295.32 46.98 293.37 46.89 Q 291.42 46.8 289.32 46.8 Q 287.28 46.8 285.06 46.89 Q 282.84 46.98 281.76 47.04 L 281.76 45.78 Q 284.1 45.78 285.09 44.88 Q 286.08 43.98 286.08 41.46 L 286.08 22.62 Q 286.08 20.172 285.34 18.883 A 3.401 3.401 0 0 0 285.18 18.63 A 2.63 2.63 0 0 0 284.032 17.726 Q 283.138 17.34 281.76 17.34 L 281.76 16.08 A 40.389 40.389 0 0 0 285.028 16.257 A 36.455 36.455 0 0 0 285.48 16.26 A 34.999 34.999 0 0 0 287.91 16.179 A 28.568 28.568 0 0 0 289.29 16.05 Q 291.06 15.84 292.56 15.42 L 292.56 21.96 A 13.658 13.658 0 0 1 293.832 19.573 Q 294.774 18.184 295.98 17.296 A 7.821 7.821 0 0 1 296.85 16.74 Q 299.58 15.24 302.64 15.24 Q 304.351 15.24 305.62 15.56 A 6.98 6.98 0 0 1 306.57 15.87 A 7.777 7.777 0 0 1 308.207 16.777 A 6.653 6.653 0 0 1 309.12 17.58 A 5.904 5.904 0 0 1 310.256 19.336 A 7.824 7.824 0 0 1 310.65 20.52 A 12.182 12.182 0 0 1 310.887 21.768 Q 311.086 23.176 311.099 25.103 A 40.451 40.451 0 0 1 311.1 25.38 Z M 115.5 15.42 L 115.5 40.56 A 12.514 12.514 0 0 0 115.574 41.967 Q 115.762 43.623 116.43 44.55 Q 117.147 45.544 118.773 45.772 A 7.563 7.563 0 0 0 119.82 45.84 L 119.82 47.1 Q 117.96 46.92 116.1 46.92 Q 114.12 46.92 112.32 47.1 A 17.5 17.5 0 0 0 110.288 47.42 A 14.22 14.22 0 0 0 109.02 47.76 L 109.02 41.22 Q 107.52 44.82 104.85 46.35 Q 102.18 47.88 99.24 47.88 Q 97.35 47.88 95.938 47.423 A 7.17 7.17 0 0 1 95.46 47.25 A 8.612 8.612 0 0 1 93.995 46.497 A 6.808 6.808 0 0 1 92.88 45.6 A 6.026 6.026 0 0 1 91.793 43.843 A 8.139 8.139 0 0 1 91.38 42.51 A 15.374 15.374 0 0 1 91.124 40.953 Q 90.96 39.54 90.96 37.74 L 90.96 22.62 Q 90.96 20.172 90.22 18.883 A 3.401 3.401 0 0 0 90.06 18.63 A 2.63 2.63 0 0 0 88.912 17.726 Q 88.018 17.34 86.64 17.34 L 86.64 16.08 A 40.389 40.389 0 0 0 89.908 16.257 A 36.455 36.455 0 0 0 90.36 16.26 Q 92.34 16.26 94.14 16.05 A 23.751 23.751 0 0 0 96.07 15.747 A 18.917 18.917 0 0 0 97.44 15.42 L 97.44 39.42 A 21.965 21.965 0 0 0 97.508 41.184 A 16.867 16.867 0 0 0 97.68 42.6 A 4.69 4.69 0 0 0 97.996 43.699 A 3.497 3.497 0 0 0 98.82 44.88 Q 99.716 45.716 101.682 45.72 A 9.172 9.172 0 0 0 101.7 45.72 Q 103.8 45.72 105.45 44.46 A 8.105 8.105 0 0 0 107.465 42.184 A 10.233 10.233 0 0 0 108.06 41.04 A 11.114 11.114 0 0 0 108.926 37.815 A 13.885 13.885 0 0 0 109.02 36.18 L 109.02 22.62 Q 109.02 20.172 108.28 18.883 A 3.401 3.401 0 0 0 108.12 18.63 A 2.63 2.63 0 0 0 106.972 17.726 Q 106.078 17.34 104.7 17.34 L 104.7 16.08 A 40.389 40.389 0 0 0 107.968 16.257 A 36.455 36.455 0 0 0 108.42 16.26 Q 110.4 16.26 112.2 16.05 A 23.751 23.751 0 0 0 114.13 15.747 A 18.917 18.917 0 0 0 115.5 15.42 Z M 139.92 26.34 L 139.92 22.26 A 11.012 11.012 0 0 0 139.842 20.907 Q 139.758 20.229 139.583 19.665 A 4.881 4.881 0 0 0 139.23 18.81 A 4.587 4.587 0 0 0 138.492 17.78 A 3.706 3.706 0 0 0 137.37 16.98 A 5.631 5.631 0 0 0 136.003 16.559 Q 135.387 16.448 134.687 16.441 A 9.585 9.585 0 0 0 134.58 16.44 Q 133.2 16.44 131.64 16.83 A 4.871 4.871 0 0 0 130.284 17.384 A 4.12 4.12 0 0 0 129.18 18.36 Q 130.5 18.72 131.37 19.77 A 3.747 3.747 0 0 1 132.192 21.677 A 5.015 5.015 0 0 1 132.24 22.38 Q 132.24 24.06 131.13 25.02 A 3.901 3.901 0 0 1 129.072 25.931 A 5.268 5.268 0 0 1 128.34 25.98 Q 126.845 25.98 125.97 25.224 A 2.808 2.808 0 0 1 125.58 24.81 Q 124.68 23.64 124.68 22.08 A 5.311 5.311 0 0 1 124.794 20.949 Q 124.97 20.139 125.42 19.531 A 3.364 3.364 0 0 1 125.49 19.44 A 8.296 8.296 0 0 1 126.495 18.39 A 11.322 11.322 0 0 1 127.62 17.52 A 10.439 10.439 0 0 1 129.035 16.738 Q 130.044 16.271 131.31 15.9 Q 133.56 15.24 136.32 15.24 Q 138.9 15.24 140.79 15.81 A 7.937 7.937 0 0 1 142.765 16.7 A 6.847 6.847 0 0 1 143.94 17.64 Q 145.44 19.02 145.92 21.09 A 16.769 16.769 0 0 1 146.231 22.915 Q 146.337 23.815 146.376 24.834 A 32.583 32.583 0 0 1 146.4 26.1 L 146.4 42.66 Q 146.4 43.837 146.64 44.478 A 1.771 1.771 0 0 0 146.79 44.79 Q 147.18 45.42 148.08 45.42 A 2.454 2.454 0 0 0 149.143 45.174 A 2.899 2.899 0 0 0 149.25 45.12 Q 149.637 44.916 150.122 44.574 A 14.802 14.802 0 0 0 150.6 44.22 L 151.2 45.24 A 13.348 13.348 0 0 1 149.653 46.327 A 10.989 10.989 0 0 1 148.65 46.86 A 5.864 5.864 0 0 1 147.395 47.269 Q 146.792 47.397 146.09 47.439 A 11.858 11.858 0 0 1 145.38 47.46 A 10.11 10.11 0 0 1 144.145 47.389 Q 143.047 47.254 142.26 46.86 A 3.973 3.973 0 0 1 141.006 45.899 A 3.785 3.785 0 0 1 140.49 45.12 A 5.066 5.066 0 0 1 140.072 43.889 Q 139.953 43.324 139.927 42.672 A 9.38 9.38 0 0 1 139.92 42.3 A 13.065 13.065 0 0 1 138.239 44.49 A 10.222 10.222 0 0 1 136.2 46.14 Q 134.04 47.46 131.16 47.46 A 11.063 11.063 0 0 1 129.11 47.28 A 7.904 7.904 0 0 1 126.84 46.5 A 6.69 6.69 0 0 1 124.98 45.063 A 6.155 6.155 0 0 1 124.14 43.86 A 7.596 7.596 0 0 1 123.304 41.134 A 9.529 9.529 0 0 1 123.24 40.02 Q 123.24 37.38 124.44 35.73 Q 125.64 34.08 127.53 33.06 Q 129.42 32.04 131.55 31.35 Q 133.68 30.66 135.57 30.03 Q 137.144 29.505 138.261 28.835 A 8.742 8.742 0 0 0 138.69 28.56 A 3.093 3.093 0 0 0 139.415 27.887 A 2.48 2.48 0 0 0 139.92 26.34 Z M 199.68 6.18 L 199.68 16.14 L 207.96 16.14 L 207.96 17.34 L 199.68 17.34 L 199.68 40.92 A 10.738 10.738 0 0 0 199.736 42.06 Q 199.905 43.635 200.58 44.4 A 2.916 2.916 0 0 0 202.164 45.315 A 4.471 4.471 0 0 0 203.16 45.42 A 3.654 3.654 0 0 0 205.512 44.56 A 5.049 5.049 0 0 0 205.95 44.16 A 5.734 5.734 0 0 0 206.722 43.146 Q 207.475 41.916 208.08 39.9 L 209.22 40.32 A 13.936 13.936 0 0 1 208.147 43.409 A 11.377 11.377 0 0 1 206.67 45.69 A 5.889 5.889 0 0 1 203.392 47.655 A 9.163 9.163 0 0 1 201.3 47.88 A 13.574 13.574 0 0 1 199.863 47.808 Q 199.163 47.734 198.563 47.581 A 6.824 6.824 0 0 1 197.88 47.37 Q 196.5 46.86 195.48 45.9 Q 194.16 44.52 193.68 42.6 A 13.431 13.431 0 0 1 193.407 41.131 Q 193.303 40.359 193.252 39.451 A 34.443 34.443 0 0 1 193.2 37.5 L 193.2 17.34 L 187.68 17.34 L 187.68 16.14 L 193.2 16.14 L 193.2 7.38 A 28.295 28.295 0 0 0 195.431 7.223 A 23.454 23.454 0 0 0 196.68 7.05 Q 198.3 6.78 199.68 6.18 Z M 63.06 3.72 Q 68.94 3.72 73.41 6.3 Q 77.88 8.88 80.34 13.71 Q 82.8 18.54 82.8 25.44 A 30.346 30.346 0 0 1 82.246 31.371 A 23.02 23.02 0 0 1 80.28 37.2 A 19.71 19.71 0 0 1 75.788 43.163 A 18.66 18.66 0 0 1 73.26 45.06 A 18.563 18.563 0 0 1 64.42 47.836 A 22.616 22.616 0 0 1 63 47.88 A 23.126 23.126 0 0 1 57.598 47.275 A 18.368 18.368 0 0 1 52.62 45.3 A 17.44 17.44 0 0 1 45.895 38.199 A 20.992 20.992 0 0 1 45.72 37.86 Q 43.368 33.214 43.265 26.757 A 37.319 37.319 0 0 1 43.26 26.16 A 30 30 0 0 1 43.82 20.229 A 22.835 22.835 0 0 1 45.81 14.4 A 20.355 20.355 0 0 1 49.912 8.797 A 18.706 18.706 0 0 1 52.8 6.54 Q 57.24 3.72 63.06 3.72 Z M 340.44 20.22 L 339.72 20.88 A 7.666 7.666 0 0 0 338.927 19.344 A 5.44 5.44 0 0 0 337.26 17.73 A 6.789 6.789 0 0 0 333.979 16.749 A 8.174 8.174 0 0 0 333.6 16.74 A 5.755 5.755 0 0 0 329.256 18.698 A 9.681 9.681 0 0 0 328.02 20.37 Q 325.86 24 325.92 31.56 Q 325.92 35.008 326.323 37.579 A 20.563 20.563 0 0 0 326.76 39.69 A 14.259 14.259 0 0 0 327.398 41.58 Q 327.793 42.511 328.291 43.232 A 6.417 6.417 0 0 0 329.25 44.34 A 5.718 5.718 0 0 0 333.222 45.84 A 7.316 7.316 0 0 0 333.24 45.84 A 5.365 5.365 0 0 0 336.528 44.703 A 7.679 7.679 0 0 0 337.47 43.86 Q 339.094 42.158 339.588 39.172 A 15.116 15.116 0 0 0 339.72 38.16 L 340.26 39.42 A 14.278 14.278 0 0 1 339.612 42.108 Q 338.841 44.287 337.38 45.69 A 7.643 7.643 0 0 1 333.612 47.644 A 11.136 11.136 0 0 1 331.26 47.88 A 12.833 12.833 0 0 1 327.567 47.366 A 11.007 11.007 0 0 1 324.81 46.11 A 10.264 10.264 0 0 1 321.658 42.915 A 13.993 13.993 0 0 1 320.52 40.71 Q 319.318 37.801 319.079 33.679 A 36.66 36.66 0 0 1 319.02 31.56 A 27.006 27.006 0 0 1 319.277 27.722 Q 319.706 24.739 320.85 22.47 A 14.452 14.452 0 0 1 322.911 19.383 A 11.635 11.635 0 0 1 325.74 17.04 Q 328.8 15.24 332.52 15.24 Q 335.16 15.24 337.35 16.38 A 6.012 6.012 0 0 1 339.966 19.077 A 8.349 8.349 0 0 1 340.44 20.22 Z M 346.02 0 L 346.02 40.5 A 12.514 12.514 0 0 0 346.094 41.907 Q 346.282 43.563 346.95 44.49 Q 347.667 45.484 349.293 45.712 A 7.563 7.563 0 0 0 350.34 45.78 L 350.34 47.04 Q 348.48 46.86 346.62 46.86 A 40.843 40.843 0 0 0 344.205 46.929 A 33.24 33.24 0 0 0 342.81 47.04 A 17.194 17.194 0 0 0 340.703 47.382 A 14.338 14.338 0 0 0 339.54 47.7 L 339.54 7.2 A 12.514 12.514 0 0 0 339.466 5.793 Q 339.278 4.137 338.61 3.21 Q 337.893 2.216 336.267 1.988 A 7.563 7.563 0 0 0 335.22 1.92 L 335.22 0.66 A 40.389 40.389 0 0 0 338.488 0.837 A 36.455 36.455 0 0 0 338.94 0.84 Q 340.92 0.84 342.72 0.63 A 23.751 23.751 0 0 0 344.65 0.327 A 18.917 18.917 0 0 0 346.02 0 Z M 85.44 47.7 L 86.4 48.06 A 25.096 25.096 0 0 1 85.853 50.159 Q 85.41 51.588 84.84 52.71 A 10.722 10.722 0 0 1 83.78 54.407 A 8.265 8.265 0 0 1 82.5 55.74 Q 81.36 56.76 79.38 57.54 A 10.298 10.298 0 0 1 77.475 58.073 Q 76.557 58.243 75.505 58.296 A 19.58 19.58 0 0 1 74.52 58.32 Q 71.34 58.32 68.31 57.27 A 67.801 67.801 0 0 1 63.676 55.464 A 78.334 78.334 0 0 1 62.07 54.75 Q 58.86 53.28 55.08 51.96 Q 54.66 51.84 54.3 51.72 A 6.527 6.527 0 0 0 53.96 51.616 Q 53.795 51.571 53.645 51.541 A 3.674 3.674 0 0 0 53.64 51.54 A 12.75 12.75 0 0 1 51.689 52.177 A 14.587 14.587 0 0 1 51.18 52.29 A 13.365 13.365 0 0 1 49.499 52.528 A 11.253 11.253 0 0 1 48.66 52.56 A 7.21 7.21 0 0 1 47.852 52.517 Q 47.18 52.441 46.68 52.23 Q 45.9 51.9 45.9 51.24 A 1.026 1.026 0 0 1 46.477 50.321 Q 47.233 49.88 48.983 49.861 A 14.663 14.663 0 0 1 49.14 49.86 A 16.707 16.707 0 0 1 51.597 50.05 A 21.43 21.43 0 0 1 53.64 50.46 Q 55.86 49.86 57.42 49.11 Q 58.98 48.36 60.66 47.7 Q 62.34 47.04 64.68 46.86 L 64.74 47.82 Q 63.067 47.987 61.782 48.44 A 9.106 9.106 0 0 0 61.59 48.51 Q 60.24 49.02 58.92 49.62 Q 57.787 50.135 56.256 50.606 A 34.09 34.09 0 0 1 55.74 50.76 A 403.5 403.5 0 0 1 62.704 51.801 A 421.825 421.825 0 0 1 62.76 51.81 A 132.652 132.652 0 0 0 67.119 52.429 A 111.959 111.959 0 0 0 69.6 52.71 A 50.478 50.478 0 0 0 71.796 52.888 Q 73.692 52.997 75.24 52.92 A 23.49 23.49 0 0 0 77.737 52.722 Q 78.987 52.55 80.026 52.239 A 9.978 9.978 0 0 0 81.72 51.57 A 8.231 8.231 0 0 0 85.07 48.376 A 10.374 10.374 0 0 0 85.44 47.7 Z M 62.82 4.8 Q 59.1 4.8 56.34 7.5 Q 53.58 10.2 52.08 14.94 Q 50.674 19.384 50.586 25.146 A 50.758 50.758 0 0 0 50.58 25.92 A 40.651 40.651 0 0 0 50.902 31.169 Q 51.26 33.919 52.018 36.277 A 23.94 23.94 0 0 0 52.26 36.99 A 22.334 22.334 0 0 0 53.756 40.34 Q 54.758 42.144 56.022 43.478 A 12.677 12.677 0 0 0 56.82 44.25 A 10.433 10.433 0 0 0 59.74 46.112 A 9.053 9.053 0 0 0 63.24 46.8 A 8.859 8.859 0 0 0 69.647 44.142 A 11.232 11.232 0 0 0 69.69 44.1 A 14.797 14.797 0 0 0 72.116 40.89 Q 73.184 39.02 73.95 36.63 A 30.917 30.917 0 0 0 75.142 31.175 A 42.576 42.576 0 0 0 75.48 25.68 A 40.625 40.625 0 0 0 75.176 20.573 Q 74.759 17.286 73.77 14.58 Q 72.06 9.9 69.21 7.35 A 10.257 10.257 0 0 0 66.287 5.478 A 8.995 8.995 0 0 0 62.82 4.8 Z M 274.56 15.42 L 274.56 41.46 A 10.017 10.017 0 0 0 274.622 42.617 Q 274.807 44.205 275.55 44.88 A 2.835 2.835 0 0 0 276.436 45.411 Q 277.381 45.78 278.88 45.78 L 278.88 47.04 Q 277.878 46.981 275.807 46.893 A 544.385 544.385 0 0 0 275.73 46.89 Q 273.6 46.8 271.38 46.8 A 106.42 106.42 0 0 0 267.199 46.884 A 115.611 115.611 0 0 0 267.06 46.89 Q 264.84 46.98 263.76 47.04 L 263.76 45.78 Q 266.1 45.78 267.09 44.88 Q 268.08 43.98 268.08 41.46 L 268.08 22.62 Q 268.08 20.172 267.34 18.883 A 3.401 3.401 0 0 0 267.18 18.63 A 2.63 2.63 0 0 0 266.032 17.726 Q 265.138 17.34 263.76 17.34 L 263.76 16.08 A 40.389 40.389 0 0 0 267.028 16.257 A 36.455 36.455 0 0 0 267.48 16.26 A 34.999 34.999 0 0 0 269.91 16.179 A 28.568 28.568 0 0 0 271.29 16.05 Q 273.06 15.84 274.56 15.42 Z M 0 28.86 L 21.66 28.86 L 21.66 32.88 L 0 32.88 L 0 28.86 Z M 370.14 28.86 L 391.8 28.86 L 391.8 32.88 L 370.14 32.88 L 370.14 28.86 Z M 139.92 40.74 L 139.92 28.8 A 4.74 4.74 0 0 1 138.988 29.795 A 6.601 6.601 0 0 1 138 30.45 A 76.63 76.63 0 0 1 136.355 31.324 A 90.828 90.828 0 0 1 135.3 31.86 Q 133.86 32.58 132.57 33.51 Q 131.28 34.44 130.44 35.88 Q 129.6 37.32 129.6 39.54 A 7.386 7.386 0 0 0 129.742 41.032 Q 130.012 42.344 130.8 43.23 A 3.949 3.949 0 0 0 133.364 44.54 A 5.566 5.566 0 0 0 134.04 44.58 Q 135.72 44.58 137.19 43.62 Q 138.66 42.66 139.92 40.74 Z M 272.572 1.217 A 4.881 4.881 0 0 0 270.96 0.96 A 5.679 5.679 0 0 0 270.645 0.969 A 4.344 4.344 0 0 0 267.84 2.13 A 3.94 3.94 0 0 0 266.957 3.307 A 3.935 3.935 0 0 0 266.58 5.04 A 4.698 4.698 0 0 0 266.583 5.202 A 3.792 3.792 0 0 0 267.84 7.95 A 4.244 4.244 0 0 0 269.348 8.863 A 4.881 4.881 0 0 0 270.96 9.12 A 5.679 5.679 0 0 0 271.275 9.111 A 4.344 4.344 0 0 0 274.08 7.95 A 3.94 3.94 0 0 0 274.963 6.773 A 3.935 3.935 0 0 0 275.34 5.04 A 4.698 4.698 0 0 0 275.337 4.878 A 3.792 3.792 0 0 0 274.08 2.13 A 4.244 4.244 0 0 0 272.572 1.217 Z"/></g></svg>
